<?xml version="1.0" encoding="UTF-8" standalone="no"?>
<svg xmlns="http://www.w3.org/2000/svg" xmlns:xlink="http://www.w3.org/1999/xlink" xmlns:serif="http://www.serif.com/" width="100%" height="100%" viewBox="0 0 11838 2433" version="1.1" xml:space="preserve" style="fill-rule:evenodd;clip-rule:evenodd;stroke-linejoin:round;stroke-miterlimit:2;">
    <g id="Lag-1" serif:id="Lag 1">
        <g>
            <g>
                <g>
                    <path d="M10996.3,2432.19L841.542,2432.19C376.75,2432.19 0,2055.41 0,1590.63L0,841.556C0,376.776 376.75,0.001 841.542,0.001L10996.3,0.001C11461,0.001 11837.8,376.776 11837.8,841.556L11837.8,1590.63C11837.8,2055.41 11461,2432.19 10996.3,2432.19" style="fill:rgb(25,25,25);"></path>
                </g>
            </g>
            <g>
                <g>
                    <g>
                        <g>
                            <path d="M4120.1,1265.49C4120.1,1072.85 4261.36,931.571 4461.71,931.571C4662.06,931.571 4803.34,1072.85 4803.34,1265.49C4803.34,1458.13 4662.06,1599.41 4461.71,1599.41C4261.36,1599.41 4120.1,1458.13 4120.1,1265.49ZM4680.05,1265.49C4680.05,1137.06 4592.71,1044.58 4461.71,1044.58C4330.71,1044.58 4243.4,1137.06 4243.4,1265.49C4243.4,1393.92 4330.71,1486.4 4461.71,1486.4C4592.71,1486.4 4680.05,1393.92 4680.05,1265.49Z" style="fill:white;"></path>
                        </g>
                    </g>
                    <g>
                        <g>
                            <path d="M3352.34,1252.66C3352.34,1039.47 3226.47,931.592 3038.96,931.592C2851.46,931.592 2725.6,1040.76 2725.6,1252.66L2725.6,1611.91L2732.16,1611.91L2847.61,1552.94L2847.61,1252.66C2847.61,1115.25 2923.37,1044.61 3038.96,1044.61C3154.56,1044.61 3230.32,1115.25 3230.32,1252.66L3230.32,1611.91L3236.89,1611.91L3352.34,1552.94L3352.34,1252.66Z" style="fill:white;"></path>
                        </g>
                    </g>
                    <g>
                        <g>
                            <path d="M1790.82,1029.01C1790.82,820.955 1664.95,720.775 1503.14,720.775C1392.67,720.775 1306.63,769.58 1260.4,860.763C1214.16,769.58 1128.12,720.775 1017.66,720.775C855.838,720.775 729.98,820.955 729.98,1029.01L729.98,1611.91L736.546,1611.91L860.979,1552.95L860.979,1029.01C860.979,900.58 932.896,841.496 1027.94,841.496C1124.26,841.496 1194.9,903.151 1194.9,1029.01L1194.9,1611.91L1201.47,1611.91L1325.9,1552.95L1325.9,1029.01C1325.9,903.151 1396.54,841.496 1492.86,841.496C1587.88,841.496 1659.82,900.58 1659.82,1029.01L1659.82,1611.91L1666.38,1611.91L1790.82,1552.95L1790.82,1029.01Z" style="fill:white;"></path>
                        </g>
                    </g>
                    <g>
                        <g>
                            <path d="M7907.51,1252.66C7907.51,1039.47 7781.65,931.592 7594.15,931.592C7406.65,931.592 7280.78,1040.76 7280.78,1252.66L7280.97,1611.91L7287.36,1611.91L7402.76,1552.96L7402.76,1252.66C7402.76,1115.25 7478.56,1044.61 7594.15,1044.61C7709.73,1044.61 7785.49,1115.25 7785.49,1252.66L7785.49,1611.91L7791.91,1611.91L7907.34,1552.94L7907.51,1552.94L7907.51,1252.66Z" style="fill:white;"></path>
                        </g>
                    </g>
                    <g>
                        <g>
                            <path d="M8750.3,931.592C8651.41,931.592 8570.49,975.259 8526.82,1057.45C8483.16,975.259 8400.97,931.592 8303.36,931.592C8154.38,931.592 8041.36,1021.5 8041.36,1215.43L8041.36,1611.91L8047.93,1611.91L8163.36,1552.94L8163.38,1215.43C8163.38,1097.28 8226.29,1044.61 8314.92,1044.61C8400.97,1044.61 8466.47,1099.84 8466.47,1215.43L8466.68,1611.91L8473.1,1611.91L8588.46,1552.98L8588.48,1552.98L8588.48,1215.43C8588.48,1099.84 8652.68,1044.61 8738.75,1044.61C8827.35,1044.61 8890.29,1097.28 8890.29,1215.43L8890.29,1611.91L8896.86,1611.91L9012.29,1552.94L9012.29,1215.43C9012.29,1021.5 8899.27,931.592 8750.3,931.592" style="fill:white;"></path>
                        </g>
                    </g>
                    <g>
                        <g>
                            <path d="M9488.22,931.571C9286.59,931.571 9145.32,1071.56 9145.32,1270.63C9145.32,1479.96 9302.01,1599.41 9467.66,1599.41C9578.14,1599.41 9671.87,1546.76 9714.25,1444.01L9714.27,1611.91L9720.85,1611.91L9825.98,1552.95L9825.98,1270.63C9825.98,1067.71 9687.29,931.571 9488.22,931.571ZM9486.92,1486.4C9355.93,1486.4 9268.62,1393.92 9268.62,1265.49C9268.62,1137.06 9355.93,1044.58 9486.92,1044.58C9617.92,1044.58 9705.26,1137.06 9705.26,1265.49C9705.26,1393.92 9617.92,1486.4 9486.92,1486.4Z" style="fill:white;"></path>
                        </g>
                    </g>
                    <g>
                        <g>
                            <path d="M6815.84,931.571C6614.22,931.571 6472.94,1071.56 6472.94,1270.63C6472.94,1479.96 6629.63,1599.41 6795.28,1599.41C6905.76,1599.41 6999.49,1546.76 7041.87,1444.01L7041.88,1611.91L7048.47,1611.91L7153.61,1552.95L7153.61,1270.63C7153.61,1067.71 7014.91,931.571 6815.84,931.571ZM6814.55,1486.4C6683.55,1486.4 6596.24,1393.92 6596.24,1265.49C6596.24,1137.06 6683.55,1044.58 6814.55,1044.58C6945.55,1044.58 7032.88,1137.06 7032.88,1265.49C7032.88,1393.92 6945.55,1486.4 6814.55,1486.4Z" style="fill:white;"></path>
                        </g>
                    </g>
                    <g>
                        <g>
                            <path d="M5200.46,931.592C5037.35,931.592 4926.9,1021.5 4926.9,1209L4926.9,1611.91L4933.47,1611.91L5048.9,1553.08L5048.9,1552.94L5048.9,1552.94L5048.9,1209C5048.9,1092.13 5109.28,1044.61 5200.46,1044.61C5290.16,1044.61 5351.66,1091.98 5351.95,1208.26L5352,1216.7L5358.54,1216.7L5469.3,1157.98C5469.29,1157.91 5469.27,1157.82 5469.27,1157.76C5450.21,1004.97 5346.37,931.592 5200.46,931.592" style="fill:white;"></path>
                        </g>
                    </g>
                    <g>
                        <g>
                            <path d="M10225.8,931.592C10062.7,931.592 9952.28,1021.5 9952.28,1209L9952.28,1611.91L9958.84,1611.91L10074.3,1553.08L10074.3,1552.94L10074.3,1552.94L10074.3,1209C10074.3,1092.13 10134.7,1044.61 10225.8,1044.61C10315.5,1044.61 10377,1091.98 10377.3,1208.26L10377.4,1216.7L10383.9,1216.7L10494.7,1157.98C10494.7,1157.91 10494.6,1157.82 10494.6,1157.76C10475.6,1004.97 10371.8,931.592 10225.8,931.592" style="fill:white;"></path>
                        </g>
                    </g>
                    <g>
                        <g>
                            <path d="M3988.79,1328.22L3988.4,1328.42L3869.94,1387.13L3869.82,1387.18L3869.92,1387.18C3855.77,1456.19 3807.64,1486.4 3741.07,1486.4C3661.44,1486.4 3608.77,1442.73 3608.77,1342.54L3608.77,1060L3900.42,1060L3958.11,954.784L3958.11,948.234L3608.77,948.267L3608.77,709.08L3602.22,709.08L3486.77,767.909L3486.77,1342.54C3486.77,1514.64 3589.51,1599.41 3741.07,1599.41C3878.79,1599.41 3975.95,1529.14 3992.55,1387.18C3994.22,1372.94 3995.36,1358.23 3995.36,1342.54L3995.36,1328.22L3988.79,1328.22Z" style="fill:white;"></path>
                        </g>
                    </g>
                    <g>
                        <g>
                            <path d="M5898.84,715.467L5670.87,715.467L5599.58,750.763L5599.58,1599.41L5898.84,1599.41C6191.66,1599.41 6345.77,1422.34 6345.77,1157.43C6345.77,892.534 6191.66,715.467 5898.84,715.467ZM5898.84,1472.36L5730.58,1472.36L5730.58,842.513L5898.84,842.513C6113.31,842.513 6213.48,966.855 6213.48,1157.43C6213.48,1348.02 6113.31,1472.36 5898.84,1472.36Z" style="fill:white;"></path>
                        </g>
                    </g>
                    <g>
                        <g>
                            <path d="M2592.87,1293.11L2462.96,1349.22C2462.95,1349.23 2462.95,1349.27 2462.93,1349.28C2433.25,1431.92 2358.85,1485.9 2258.85,1485.9C2166.6,1485.9 2096.18,1439.92 2062.5,1367.95L2465.74,1189.22L2578.03,1139.46C2564.63,1103.88 2545.52,1071.75 2521.43,1043.94C2460.65,973.776 2368.74,931.08 2258.85,931.08C2058.5,931.08 1917.24,1072.36 1917.24,1265C1917.24,1280.52 1918.48,1295.58 1920.27,1310.38C1924.93,1348.88 1935.49,1384.75 1951.21,1417.27C2004.49,1527.51 2116.62,1598.91 2258.85,1598.91C2428.55,1598.91 2555.49,1497.37 2590.48,1349.28C2591.16,1346.38 2591.96,1343.53 2592.58,1340.59C2593.31,1337.2 2593.99,1333.82 2594.61,1330.43C2596.03,1322.48 2597.14,1314.38 2598.03,1306.2C2598.34,1303.22 2598.76,1300.29 2598.99,1297.3C2599.1,1295.93 2599.08,1294.51 2599.18,1293.11L2592.87,1293.11ZM2258.85,1044.09C2317.9,1044.09 2367.96,1063.02 2405.27,1095.43L2040.88,1256.93C2044.5,1132.77 2130.64,1044.09 2258.85,1044.09Z" style="fill:rgb(252,253,253);"></path>
                        </g>
                    </g>
                    <g>
                        <g>
                            <path d="M10888.9,1196.36L11159.4,938.321L11057.5,889.176L11051.3,889.142C11051.3,889.142 10702.7,1221.07 10702.2,1221.27L10701.5,709.08L10694.9,709.08L10579.5,768.046L10579.5,1611.91L10586.1,1611.91L10701.5,1553.37L10701.5,1367.61C10714.8,1352.29 10732.2,1338.52 10750.3,1329.23C10777.8,1315.13 10809.9,1307.2 10846.6,1307.2C10859.6,1307.2 10871.9,1308.38 10883.8,1310.17C10959.1,1321.39 11011.7,1368.36 11030.1,1448.73C11034.7,1469.01 11037.9,1527 11037.9,1551.57L11037.9,1611.91L11044.5,1611.91L11159.4,1553.37L11159.9,1553.37L11159.9,1515.25C11159.9,1318.58 11052.7,1211.76 10888.9,1196.36" style="fill:white;"></path>
                        </g>
                    </g>
                </g>
            </g>
        </g>
    </g>
</svg>
